<svg width="18" height="18" viewBox="0 0 18 18" fill="none" xmlns="http://www.w3.org/2000/svg">
<path d="M1.67727 9.81818H0V8.18182H1.67727C2.04545 4.77 4.77 2.04545 8.18182 1.67727V0H9.81818V1.67727C13.23 2.04545 15.9545 4.77 16.3227 8.18182H18V9.81818H16.3227C15.9545 13.23 13.23 15.9545 9.81818 16.3227V18H8.18182V16.3227C4.77 15.9545 2.04545 13.23 1.67727 9.81818ZM9 3.27273C7.48103 3.27273 6.02428 3.87613 4.95021 4.95021C3.87613 6.02428 3.27273 7.48103 3.27273 9C3.27273 10.519 3.87613 11.9757 4.95021 13.0498C6.02428 14.1239 7.48103 14.7273 9 14.7273C10.519 14.7273 11.9757 14.1239 13.0498 13.0498C14.1239 11.9757 14.7273 10.519 14.7273 9C14.7273 7.48103 14.1239 6.02428 13.0498 4.95021C11.9757 3.87613 10.519 3.27273 9 3.27273Z" fill="#6A6E77"/>
</svg>
