<svg width="14" height="16" viewBox="0 0 14 16" fill="none" xmlns="http://www.w3.org/2000/svg">
<path d="M8.3125 3.9375C9.82092 3.9375 11.2676 4.53672 12.3342 5.60333C13.4008 6.66994 14 8.11658 14 9.625C14 11.1334 13.4008 12.5801 12.3342 13.6467C11.2676 14.7133 9.82092 15.3125 8.3125 15.3125H5.25V13.5625H8.3125C10.5 13.5625 12.25 11.8125 12.25 9.625C12.25 7.4375 10.5 5.6875 8.3125 5.6875H3.35125L6.04625 8.39125L4.8125 9.625L0 4.8125L4.8125 0L6.055 1.23375L3.35125 3.9375H8.3125ZM1.75 13.5625H3.5V15.3125H1.75V13.5625Z" fill="white"/>
</svg>
