<svg width="16" height="18" viewBox="0 0 16 18" fill="none" xmlns="http://www.w3.org/2000/svg">
<path d="M5.33333 8H3.55556V9.77778H5.33333V8ZM8.88889 8H7.11111V9.77778H8.88889V8ZM12.4444 8H10.6667V9.77778H12.4444V8ZM14.2222 1.77778H13.3333V0H11.5556V1.77778H4.44444V0H2.66667V1.77778H1.77778C0.791111 1.77778 0 2.57778 0 3.55556V16C0 16.4715 0.187301 16.9237 0.520699 17.2571C0.854097 17.5905 1.30628 17.7778 1.77778 17.7778H14.2222C14.6937 17.7778 15.1459 17.5905 15.4793 17.2571C15.8127 16.9237 16 16.4715 16 16V3.55556C16 3.08406 15.8127 2.63188 15.4793 2.29848C15.1459 1.96508 14.6937 1.77778 14.2222 1.77778ZM14.2222 16H1.77778V6.22222H14.2222V16Z" fill="#6A6E77"/>
</svg>
