<svg xmlns="http://www.w3.org/2000/svg" width="82" height="82" viewBox="0 0 82 82"><g><g><g><path fill="none" stroke="#789" stroke-miterlimit="20" d="M53.807 28.923v0l-5.26-7.035v0H34.493v0l-5.29 7.035v0h-8.796a3.503 3.503 0 0 0-3.506 3.502v21.073A3.503 3.503 0 0 0 20.406 57h42.167a3.502 3.502 0 0 0 3.506-3.502V32.425a3.503 3.503 0 0 0-3.506-3.502h-8.766v0z"/></g><g><path fill="none" stroke="#789" stroke-miterlimit="20" d="M32.72 41.215a8.786 8.786 0 1 1 17.57 0 8.786 8.786 0 0 1-17.57 0z"/></g><g><path fill="none" stroke="#789" stroke-miterlimit="20" d="M25.575 1v0H1v24.575"/></g><g><path fill="none" stroke="#789" stroke-miterlimit="20" d="M81.005 25.575v0V1v0H56.43v0"/></g><g><path fill="none" stroke="#789" stroke-miterlimit="20" d="M56.43 81v0h24.575v0-24.575 0"/></g><g><path fill="none" stroke="#789" stroke-miterlimit="20" d="M1 56.425V81h24.575v0"/></g></g></g></svg>