<svg xmlns="http://www.w3.org/2000/svg" width="50" height="50" viewBox="0 0 50 50"><g><g><g><path fill="#fff" d="M1 25C1 11.745 11.745 1 25 1s24 10.745 24 24-10.745 24-24 24S1 38.255 1 25z"/><path fill="none" stroke="#e1e5e9" stroke-miterlimit="20" d="M1 25C1 11.745 11.745 1 25 1s24 10.745 24 24-10.745 24-24 24S1 38.255 1 25z"/></g><g><path fill="#456" d="M23.82 10.71l-.93-1.9-1.8 1.28-2.98.62.33 2.91-1.21.75.88.61-3.39 2.28 1.15 3.58z"/></g><g><path fill="#456" d="M41.15 35.83a1.52 1.52 0 1 1-3.039.001 1.52 1.52 0 0 1 3.039-.001m-1.52-4.28c-2.36 0-4.28 1.92-4.28 4.28 0 2.36 1.91 4.28 4.28 4.28 2.36 0 4.28-1.91 4.28-4.28 0-2.36-1.91-4.28-4.28-4.28"/></g><g><path fill="#456" d="M30.1 35.83a1.52 1.52 0 1 1-3.039.001 1.52 1.52 0 0 1 3.039-.001m-1.52-4.28c-2.37 0-4.29 1.92-4.28 4.28 0 2.36 1.91 4.28 4.28 4.28 2.36 0 4.28-1.91 4.28-4.28 0-2.36-1.91-4.28-4.28-4.28"/></g><g><path fill="#456" d="M45.03 11.78l-6.41 18.11H46.34l2.55-7.2c-.39-4-1.75-7.72-3.86-10.91z"/></g><g><path fill="#456" d="M33.65 9.59l-7.18 20.3h9.54l7.18-20.3z"/></g><g><path fill="#456" d="M21.96 27.76h-3v-3h3zm-5.69 3.98h-2.73l2.73-3.28zM27.16 9.59L16.32 23.4v3.21c-.15 0-4.79 5.52-4.79 5.63H9.55s-.07 2.62 0 2.62h6.77v4.08h3.18v-3.45l4.28-5.59 7.18-20.3h-3.8z"/></g><g><path fill="none" stroke="#e1e5e9" stroke-miterlimit="20" d="M1 25C1 11.745 11.745 1 25 1s24 10.745 24 24-10.745 24-24 24S1 38.255 1 25z"/></g></g></g></svg>