<svg width="16" height="16" viewBox="0 0 16 16" fill="none" xmlns="http://www.w3.org/2000/svg">
<path d="M11.5556 6.22222H9.77778V3.55556H6.22222V6.22222H4.44444L8 9.77778L11.5556 6.22222ZM14.2222 10.6667H10.6667C10.6667 11.3739 10.3857 12.0522 9.88562 12.5523C9.38552 13.0524 8.70724 13.3333 8 13.3333C7.29276 13.3333 6.61448 13.0524 6.11438 12.5523C5.61428 12.0522 5.33333 11.3739 5.33333 10.6667H1.77778V1.77778H14.2222V10.6667ZM14.2222 0H1.77778C0.791111 0 0 0.8 0 1.77778V14.2222C0 14.6937 0.187301 15.1459 0.520699 15.4793C0.854097 15.8127 1.30628 16 1.77778 16H14.2222C14.6937 16 15.1459 15.8127 15.4793 15.4793C15.8127 15.1459 16 14.6937 16 14.2222V1.77778C16 1.30628 15.8127 0.854097 15.4793 0.520699C15.1459 0.187301 14.6937 0 14.2222 0Z" fill="white"/>
</svg>
