<svg xmlns="http://www.w3.org/2000/svg" width="50" height="50" viewBox="0 0 50 50"><g><g><g><path fill="#fff" d="M1 25C1 11.745 11.745 1 25 1s24 10.745 24 24-10.745 24-24 24S1 38.255 1 25z"/><path fill="none" stroke="#e1e5e9" stroke-miterlimit="20" d="M1 25C1 11.745 11.745 1 25 1s24 10.745 24 24-10.745 24-24 24S1 38.255 1 25z"/></g><g><path fill="none" stroke="#456" stroke-linecap="round" stroke-linejoin="round" stroke-miterlimit="20" stroke-width="2.94" d="M24.87 2.5v10.05"/></g><g><path fill="#456" d="M29.81 12.36h-9.87c-.48 0-.92.24-1.19.63l-5.04 7.55c-.16.23-.24.51-.24.79v.99c0 .79.64 1.42 1.42 1.42h19.94c.79 0 1.42-.64 1.42-1.42v-.99c0-.28-.08-.56-.24-.79L30.99 13c-.26-.4-.71-.64-1.18-.64"/></g><g><path fill="none" stroke="#456" stroke-linecap="round" stroke-linejoin="round" stroke-miterlimit="20" stroke-width="1.75" d="M18.58 31.3l-2.49 4.32"/></g><g><path fill="none" stroke="#456" stroke-linecap="round" stroke-linejoin="round" stroke-miterlimit="20" stroke-width="1.75" d="M25.05 38.52v-4.91"/></g><g><path fill="none" stroke="#456" stroke-linecap="round" stroke-linejoin="round" stroke-miterlimit="20" stroke-width="1.75" d="M15.9 26.83l-4.39 2.54"/></g><g><path fill="none" stroke="#456" stroke-linecap="round" stroke-linejoin="round" stroke-miterlimit="20" stroke-width="1.75" d="M38.49 29.25l-4.41-2.55"/></g><g><path fill="none" stroke="#456" stroke-linecap="round" stroke-linejoin="round" stroke-miterlimit="20" stroke-width="1.75" d="M33.98 35.49l-2.51-4.35"/></g><g><path fill="#456" d="M24.87 27.32c1.97 0 3.56-1.59 3.56-3.56h-7.12c0 1.96 1.59 3.56 3.56 3.56"/></g><g><path fill="none" stroke="#fff" stroke-linecap="round" stroke-linejoin="round" stroke-miterlimit="20" stroke-width="2" d="M36.2 20.91H13.54"/></g><g><path fill="none" stroke="#e1e5e9" stroke-miterlimit="20" d="M1 25C1 11.745 11.745 1 25 1s24 10.745 24 24-10.745 24-24 24S1 38.255 1 25z"/></g></g></g></svg>