<svg xmlns="http://www.w3.org/2000/svg" width="96" height="96" viewBox="0 0 96 96"><defs><linearGradient id="tyu6a" x1="96" x2="0" y1="0" y2="96" gradientUnits="userSpaceOnUse"><stop offset="0" stop-color="#08c"/><stop offset="1" stop-color="#7cf"/></linearGradient></defs><g><g><g><path fill="url(#tyu6a)" d="M8 96a8 8 0 0 1-8-8V8a8 8 0 0 1 8-8h80a8 8 0 0 1 8 8v80a8 8 0 0 1-8 8z"/></g><g><g><path fill="none" stroke="#fff" stroke-miterlimit="20" stroke-width="2" d="M77.615 49.552c0 16.521-13.37 29.903-29.879 29.903-16.508 0-29.88-13.382-29.88-29.903s13.372-29.903 29.88-29.903"/></g><g><path fill="#fff" d="M49.026 67.521l-15.853-21.15 8.797-6.597 5.59 7.46 17.338-31.798 9.658 5.26z"/></g></g></g></g></svg>