<svg xmlns="http://www.w3.org/2000/svg" width="13" height="16" viewBox="0 0 13 16"><g><g><path fill="#666" d="M1.1 5.11l.787-.69c.138-.123.748-.265 1.037.081a.744.744 0 0 1-.08 1.064l-.786.692c-.686.601-.785 1.69-.222 2.413a1.59 1.59 0 0 0 2.275.26l3.681-3.02a3.038 3.038 0 0 1 4.341.497c1.061 1.359.877 3.368-.412 4.501l-.786.692a.723.723 0 0 1-1.037-.083.766.766 0 0 1 .08-1.063l.786-.691c.686-.604.786-1.69.221-2.414a1.592 1.592 0 0 0-2.273-.261l-3.682 3.02a3.037 3.037 0 0 1-4.342-.496C-.37 8.254-.188 6.243 1.1 5.111zm3.69 8.49a2.4 2.4 0 1 1 4.8 0 2.4 2.4 0 0 1-4.8 0zM2.164 1.233l4-1.2a.802.802 0 0 1 .997.997l-1.2 4a.794.794 0 0 1-.57.545l-.197.025a.801.801 0 0 1-.565-.235l-2.801-2.8a.802.802 0 0 1 .336-1.332z"/></g></g></svg>