<svg width="15" height="15" viewBox="0 0 15 15" fill="none" xmlns="http://www.w3.org/2000/svg">
<path d="M7.297 10.125C6.60081 10.125 5.93313 9.84844 5.44084 9.35616C4.94856 8.86387 4.672 8.19619 4.672 7.5C4.672 6.80381 4.94856 6.13613 5.44084 5.64384C5.93313 5.15156 6.60081 4.875 7.297 4.875C7.99319 4.875 8.66087 5.15156 9.15315 5.64384C9.64544 6.13613 9.922 6.80381 9.922 7.5C9.922 8.19619 9.64544 8.86387 9.15315 9.35616C8.66087 9.84844 7.99319 10.125 7.297 10.125ZM12.8695 8.2275C12.8995 7.9875 12.922 7.7475 12.922 7.5C12.922 7.2525 12.8995 7.005 12.8695 6.75L14.452 5.5275C14.5945 5.415 14.632 5.2125 14.542 5.0475L13.042 2.4525C12.952 2.2875 12.7495 2.22 12.5845 2.2875L10.717 3.0375C10.327 2.745 9.922 2.49 9.4495 2.3025L9.172 0.315C9.142 0.135 8.9845 0 8.797 0H5.797C5.6095 0 5.452 0.135 5.422 0.315L5.1445 2.3025C4.672 2.49 4.267 2.745 3.877 3.0375L2.0095 2.2875C1.8445 2.22 1.642 2.2875 1.552 2.4525L0.0519987 5.0475C-0.0455013 5.2125 -0.000501227 5.415 0.141999 5.5275L1.7245 6.75C1.6945 7.005 1.672 7.2525 1.672 7.5C1.672 7.7475 1.6945 7.9875 1.7245 8.2275L0.141999 9.4725C-0.000501227 9.585 -0.0455013 9.7875 0.0519987 9.9525L1.552 12.5475C1.642 12.7125 1.8445 12.7725 2.0095 12.7125L3.877 11.955C4.267 12.255 4.672 12.51 5.1445 12.6975L5.422 14.685C5.452 14.865 5.6095 15 5.797 15H8.797C8.9845 15 9.142 14.865 9.172 14.685L9.4495 12.6975C9.922 12.5025 10.327 12.255 10.717 11.955L12.5845 12.7125C12.7495 12.7725 12.952 12.7125 13.042 12.5475L14.542 9.9525C14.632 9.7875 14.5945 9.585 14.452 9.4725L12.8695 8.2275Z" fill="#6A6E77"/>
</svg>
