<svg xmlns="http://www.w3.org/2000/svg" width="50" height="50" viewBox="0 0 50 50"><g><g><g><path fill="#fff" d="M1 25C1 11.745 11.745 1 25 1s24 10.745 24 24-10.745 24-24 24S1 38.255 1 25z"/><path fill="none" stroke="#e1e5e9" stroke-miterlimit="20" d="M1 25C1 11.745 11.745 1 25 1s24 10.745 24 24-10.745 24-24 24S1 38.255 1 25z"/></g><g><g><path fill="#456" d="M30.767 18.047a2.403 2.403 0 1 1 4.807 0 2.403 2.403 0 0 1-4.807 0z"/></g><g><path fill="#456" d="M36.796 31.05H26.614l-.056 8.167h11.28z"/></g><g><path fill="#456" d="M36.796 30.05v-7.183H14.07c-1.973 0-2.07 2.029-2.07 2.029v1.57l14.614 3.583z"/></g><g><path fill="#456" d="M36.796 21.867V17.27l-7.585-.444-.597 5.042z"/></g><g><path fill="#456" d="M37.032 17.561s.18-.792.459-1.986c.277-1.195-.334-1.737-1.014-1.903-.667-.153-12.822-2.556-14.225-2.82-1.403-.264-2.25 1.43-1.459 1.805.792.376 16.24 4.904 16.24 4.904z"/></g><g><path fill="#456" d="M12 26.465v2.556h4.334v-1.5z"/></g><g><path fill="#456" d="M27.697 21.242a1.565 1.565 0 0 1-1.389-1.555c0-.862.695-1.556 1.556-1.556a.52.52 0 0 1 .153.014"/></g><g><path fill="#456" d="M15.403 32.786c0 .68-.555 1.25-1.25 1.25-.694 0-1.25-.556-1.25-1.25 0-.695 1.25-2.39 1.25-2.39s1.25 1.695 1.25 2.39z"/></g></g></g></g></svg>